HIERARCHY
ROOT Hips
{
	OFFSET -14.64140 90.27770 -84.91600
	CHANNELS 6 Xposition Yposition Zposition Zrotation Xrotation Yrotation
	JOINT Spine
	{
		OFFSET 0.00000 13.20850 -1.60436
		CHANNELS 3 Zrotation Xrotation Yrotation
		JOINT Spine1
		{
			OFFSET 0.00000 8.61716 0.00000
			CHANNELS 3 Zrotation Xrotation Yrotation
			JOINT Spine2
			{
				OFFSET 0.00000 8.61717 0.00000
				CHANNELS 3 Zrotation Xrotation Yrotation
				JOINT Spine3
				{
					OFFSET 0.00000 8.61717 0.00000
					CHANNELS 3 Zrotation Xrotation Yrotation
					JOINT Neck
					{
						OFFSET 0.00000 11.07920 1.10792
						CHANNELS 3 Zrotation Xrotation Yrotation
						JOINT Neck1
						{
							OFFSET 0.00000 7.08032 0.00000
							CHANNELS 3 Zrotation Xrotation Yrotation
							JOINT Head
							{
								OFFSET 0.00000 7.08031 0.00000
								CHANNELS 3 Zrotation Xrotation Yrotation
								End site
								{
									OFFSET 0.00000 0.00000 0.00000
								}
							}
						}
					}
					JOINT RightShoulder
					{
						OFFSET -0.01000 7.91373 5.19711
						CHANNELS 3 Zrotation Xrotation Yrotation
						JOINT RightArm
						{
							OFFSET -18.41580 0.00000 0.00000
							CHANNELS 3 Zrotation Xrotation Yrotation
							JOINT RightForeArm
							{
								OFFSET -29.11090 0.00000 0.00000
								CHANNELS 3 Zrotation Xrotation Yrotation
								JOINT RightHand
								{
									OFFSET -24.65040 0.00000 0.00000
									CHANNELS 3 Zrotation Xrotation Yrotation
									JOINT RightHandThumb1
									{
										OFFSET -5.35114 -0.85590 3.97906
										CHANNELS 3 Zrotation Xrotation Yrotation
										JOINT RightHandThumb2
										{
											OFFSET -4.52789 0.00000 0.00000
											CHANNELS 3 Zrotation Xrotation Yrotation
											JOINT RightHandThumb3
											{
												OFFSET -2.46976 0.00000 0.00000
												CHANNELS 3 Zrotation Xrotation Yrotation
												End site
												{
													OFFSET 0.00000 0.00000 0.00000
												}
											}
										}
									}
									JOINT RightHandIndex1
									{
										OFFSET -14.26970 0.00000 2.88139
										CHANNELS 3 Zrotation Xrotation Yrotation
										JOINT RightHandIndex2
										{
											OFFSET -5.48836 0.00000 0.00000
											CHANNELS 3 Zrotation Xrotation Yrotation
											JOINT RightHandIndex3
											{
												OFFSET -3.01859 0.00000 0.00000
												CHANNELS 3 Zrotation Xrotation Yrotation
												End site
												{
													OFFSET 0.00000 0.00000 0.00000
												}
											}
										}
									}
									JOINT RightHandMiddle1
									{
										OFFSET -14.26970 0.00000 -0.09147
										CHANNELS 3 Zrotation Xrotation Yrotation
										JOINT RightHandMiddle2
										{
											OFFSET -6.17441 0.00000 0.00000
											CHANNELS 3 Zrotation Xrotation Yrotation
											JOINT RightHandMiddle3
											{
												OFFSET -3.56743 0.00000 0.00000
												CHANNELS 3 Zrotation Xrotation Yrotation
												End site
												{
													OFFSET 0.00000 0.00000 0.00000
												}
											}
										}
									}
									JOINT RightHandRing1
									{
										OFFSET -12.69180 0.00000 -3.06433
										CHANNELS 3 Zrotation Xrotation Yrotation
										JOINT RightHandRing2
										{
											OFFSET -5.62556 0.00000 0.00000
											CHANNELS 3 Zrotation Xrotation Yrotation
											JOINT RightHandRing3
											{
												OFFSET -3.56744 0.00000 0.00000
												CHANNELS 3 Zrotation Xrotation Yrotation
												End site
												{
													OFFSET 0.00000 0.00000 0.00000
												}
											}
										}
									}
									JOINT RightHandPinky1
									{
										OFFSET -11.11390 0.00000 -6.03719
										CHANNELS 3 Zrotation Xrotation Yrotation
										JOINT RightHandPinky2
										{
											OFFSET -4.52789 0.00000 0.00000
											CHANNELS 3 Zrotation Xrotation Yrotation
											JOINT RightHandPinky3
											{
												OFFSET -2.46976 0.00000 0.00000
												CHANNELS 3 Zrotation Xrotation Yrotation
												End site
												{
													OFFSET 0.00000 0.00000 0.00000
												}
											}
										}
									}
								}
							}
						}
					}
					JOINT LeftShoulder
					{
						OFFSET 0.01000 7.91373 5.19711
						CHANNELS 3 Zrotation Xrotation Yrotation
						JOINT LeftArm
						{
							OFFSET 18.41580 0.00000 0.00000
							CHANNELS 3 Zrotation Xrotation Yrotation
							JOINT LeftForeArm
							{
								OFFSET 29.11090 0.00000 0.00000
								CHANNELS 3 Zrotation Xrotation Yrotation
								JOINT LeftHand
								{
									OFFSET 24.65040 0.00000 0.00000
									CHANNELS 3 Zrotation Xrotation Yrotation
									JOINT LeftHandThumb1
									{
										OFFSET 5.35114 -0.85590 3.97906
										CHANNELS 3 Zrotation Xrotation Yrotation
										JOINT LeftHandThumb2
										{
											OFFSET 4.52789 0.00000 0.00000
											CHANNELS 3 Zrotation Xrotation Yrotation
											JOINT LeftHandThumb3
											{
												OFFSET 2.46977 0.00000 0.00000
												CHANNELS 3 Zrotation Xrotation Yrotation
												End site
												{
													OFFSET 0.00000 0.00000 0.00000
												}
											}
										}
									}
									JOINT LeftHandIndex1
									{
										OFFSET 14.26970 0.00000 2.88139
										CHANNELS 3 Zrotation Xrotation Yrotation
										JOINT LeftHandIndex2
										{
											OFFSET 5.48836 0.00000 0.00000
											CHANNELS 3 Zrotation Xrotation Yrotation
											JOINT LeftHandIndex3
											{
												OFFSET 3.01859 0.00000 0.00000
												CHANNELS 3 Zrotation Xrotation Yrotation
												End site
												{
													OFFSET 0.00000 0.00000 0.00000
												}
											}
										}
									}
									JOINT LeftHandMiddle1
									{
										OFFSET 14.26970 0.00000 -0.09147
										CHANNELS 3 Zrotation Xrotation Yrotation
										JOINT LeftHandMiddle2
										{
											OFFSET 6.17440 0.00000 0.00000
											CHANNELS 3 Zrotation Xrotation Yrotation
											JOINT LeftHandMiddle3
											{
												OFFSET 3.56744 0.00000 0.00000
												CHANNELS 3 Zrotation Xrotation Yrotation
												End site
												{
													OFFSET 0.00000 0.00000 0.00000
												}
											}
										}
									}
									JOINT LeftHandRing1
									{
										OFFSET 12.69180 0.00000 -3.06433
										CHANNELS 3 Zrotation Xrotation Yrotation
										JOINT LeftHandRing2
										{
											OFFSET 5.62556 0.00000 0.00000
											CHANNELS 3 Zrotation Xrotation Yrotation
											JOINT LeftHandRing3
											{
												OFFSET 3.56744 0.00000 0.00000
												CHANNELS 3 Zrotation Xrotation Yrotation
												End site
												{
													OFFSET 0.00000 0.00000 0.00000
												}
											}
										}
									}
									JOINT LeftHandPinky1
									{
										OFFSET 11.11390 0.00000 -6.03719
										CHANNELS 3 Zrotation Xrotation Yrotation
										JOINT LeftHandPinky2
										{
											OFFSET 4.52789 0.00000 0.00000
											CHANNELS 3 Zrotation Xrotation Yrotation
											JOINT LeftHandPinky3
											{
												OFFSET 2.46976 0.00000 0.00000
												CHANNELS 3 Zrotation Xrotation Yrotation
												End site
												{
													OFFSET 0.00000 0.00000 0.00000
												}
											}
										}
									}
								}
							}
						}
					}
					JOINT pCube4
					{
						OFFSET 0.00000 10.91090 1.10792
						CHANNELS 3 Zrotation Xrotation Yrotation
						End site
						{
							OFFSET 0.00000 0.00000 0.00000
						}
					}
				}
			}
		}
	}
	JOINT RightUpLeg
	{
		OFFSET -9.98441 0.00000 0.00000
		CHANNELS 3 Zrotation Xrotation Yrotation
		JOINT RightLeg
		{
			OFFSET 0.00000 -42.11790 0.00000
			CHANNELS 3 Zrotation Xrotation Yrotation
			JOINT RightFoot
			{
				OFFSET 0.00000 -45.00020 -0.00001
				CHANNELS 3 Zrotation Xrotation Yrotation
				JOINT RightForeFoot
				{
					OFFSET 0.00000 -3.74820 0.00000
					CHANNELS 3 Zrotation Xrotation Yrotation
					JOINT RightToeBase
					{
						OFFSET 0.00000 0.06325 14.43120
						CHANNELS 3 Zrotation Xrotation Yrotation
						End site
						{
							OFFSET 0.00000 0.00000 0.00000
						}
					}
				}
			}
		}
	}
	JOINT LeftUpLeg
	{
		OFFSET 9.98441 0.00000 0.00000
		CHANNELS 3 Zrotation Xrotation Yrotation
		JOINT LeftLeg
		{
			OFFSET 0.00000 -42.11800 0.00000
			CHANNELS 3 Zrotation Xrotation Yrotation
			JOINT LeftFoot
			{
				OFFSET 0.00000 -45.00070 0.00000
				CHANNELS 3 Zrotation Xrotation Yrotation
				JOINT LeftForeFoot
				{
					OFFSET 0.00000 -3.74824 0.00000
					CHANNELS 3 Zrotation Xrotation Yrotation
					JOINT LeftToeBase
					{
						OFFSET 0.00000 0.06325 14.43110
						CHANNELS 3 Zrotation Xrotation Yrotation
						End site
						{
							OFFSET 0.00000 0.00000 0.00000
						}
					}
				}
			}
		}
	}
}
MOTION
Frames: 4
Frame Time: 0.050000
-0.018973708960158302 0.0073454791682138355 -0.018439876318846974 -0.04514644517444671 0.0430365199814251 0.016835867294003024 -1.709200782098814 1.055017428525835 -1.0899244840658857 -0.8512056660172226 3.6164550009991574 0.36340747772350057 -1.1188194439912713 -1.8700973463977 -0.7436992836457491 0.06267739451108698 -0.276986337562675 -0.7390816116907761 0.5768732323883229 11.992435982372626 -2.174873585340332 0.2947580312155863 -0.5335896296595702 -6.350628387116297 0.9781906853785644 -15.936867310190632 -0.5438415968259477 -5.517454097695133 2.1001933334528866 -15.948659234971023 69.97940337060346 -5.131056948104154 4.638958955671326 31.047661648988072 9.546736698452806 89.91870781175487 20.397676455045623 -0.4030835085468869 -3.7498255452925213 4.523973780145139 -0.13319908854054144 -1.593853667548623 0.01878116646103977 -0.0018633761866518937 -56.26354784830689 0.02944366441929968 -0.04783131680603763 -56.270429387691856 -38.766907280540806 0.00601470679779602 0.03419755246106673 0.0488712895691148 0.015496532176053903 0.030773981454346337 -0.012429500985036574 -0.0024823189391500354 -0.01639974775474163 -36.69416821313471 -0.04530627157347619 0.03257090379565245 0.044283485466979335 0.04535847206781472 0.000632032448319917 -0.005670804599584067 0.005859321366212678 0.003687717061254109 -19.80787763796468 0.03351424242221017 -0.011072791621425533 -0.00449522562690068 -0.014093091885220078 -0.032877698974020556 0.007245709165117144 0.04035069431098365 0.0320433306274566 24.063923668128478 0.04377990848561725 -0.029122277572270643 28.865093959426844 0.021145882642332657 -0.01212108040826356 28.8993660434005 -0.043520539131574054 -0.005504418510369237 5.3870981224402374 1.4649318905001505 13.792373618021013 -67.43890037747154 17.323082166206817 -4.468686092683883 4.155273190695055 -5.268286996674577 -78.25147001512333 -12.977854318518753 -0.7130411968649807 0.017962377107802477 -0.45527623958065394 0.10683578468274703 -8.136416431499429 0.029195295059039377 0.009312032258342071 44.57326304026896 -0.028262961428929763 0.00564806104017166 44.532405925890444 12.461284820462424 -0.03835494719581971 0.02876530396979476 0.0004890720227613376 -0.0054977172574289706 -0.015513117759840416 0.02655163241256981 0.01191618678235673 0.009773367512349588 11.06618154393864 -0.015522887423733525 0.004981512435023087 -0.036371470540927445 -0.000913068217932591 0.019766164592995055 -0.01611866831184996 -0.002548706242362418 0.03032491697530226 4.730153899948182 0.029884941888812917 -0.01606616750555529 0.015813055177229546 -0.020922912676238067 -0.032718480170246964 -0.009462770449002525 0.0006022269873422117 -0.03753927193826709 -5.5948110457444695 0.0007850736881776275 -0.024293168709007502 -6.692396950499693 0.021224460416654087 -0.022421759555662214 -6.736425546221953 0.011739500084352966 0.04250587744598601 0.016009063600732634 -0.015029887976785436 0.03387976908951557 7.996835457057039 3.501933936860014 -19.230073650485878 0.023078425859955363 10.415906483711094 -0.02526065038325598 -5.660956654118619 -15.634123225159499 3.2136693523533633 -0.0497106591884205 -0.01155850119718295 -0.024872069873615593 -0.010223462801418072 4.684780988737821 0.04000376942008686 12.43531352030194 -8.268933091460822 6.930179505359909 -0.0009411104095069014 46.42569267878643 0.018260447526876847 -4.310498599167471 -14.744529327492415 -3.8753682014295388 0.016854418485341735 0.0005664458863847147 0.041171560701333834 0.0442422704303029 -10.732883363448591 -0.016642437580317932 
0.02273339304347625 0.017187350882474434 0.0021477784115037607 0.03736603834309599 -0.007688586072494493 -0.033395754207847385 -1.8229457063778503 0.9381378388667999 -1.0034840194692813 -0.8379428854623959 3.629730984281309 0.3602028520221869 -1.1340180701128348 -1.9158471736636422 -0.8925260060957402 0.008508785069311589 -0.25934216276056554 -0.7898053881952578 0.3669368104116482 12.077246994513551 -1.7249272405561087 0.2245849439772636 -0.4315908966747853 -5.409770307144222 0.7822488576698706 -15.701077265303828 -0.4366144216764879 -5.447878665528093 2.0868212668891504 -15.81267824487567 69.88399782171783 -4.3010188020894295 4.407070126114976 31.444598137912365 9.594312951956391 89.5162358547737 20.41282064644334 -0.4253755759039687 -3.6586641587824222 4.543433245410727 -0.1427431694100998 -1.6349782106022532 0.026291110516102806 -0.02515969176139037 -56.28218820992789 -0.02114178677888445 0.009714831030989354 -56.21106670922342 -38.75254653476191 -0.013703331139885044 -0.0018354659471062874 -0.025843507799912728 0.022208324328346532 -0.035912532316690116 0.03135563662725295 -0.01919967317764676 -0.04003035956165238 -36.67632389771679 0.00015076370544910947 0.024439071119946906 0.03781492543754218 0.024529868587033894 0.021009329021868046 -0.007460072862086954 0.03782504534611029 0.012535885494255564 -19.74592124229452 -0.014298024899977111 -0.0020318397161517036 -0.010503912757873437 -0.015412116648268538 -0.02458305495698872 -0.047559184172935066 -0.024476021688061327 -0.011639917135129754 24.096594346425857 0.016755800078491985 0.02217623040676631 28.83144826610828 -0.021848663763425376 -0.026386895832025387 28.86179489447939 0.016903775019175817 -0.02481556307505769 5.893557189227287 1.5783635941823106 13.80470612086077 -67.24109211895849 15.531331481642065 -5.90887810989796 3.60305054233426 -5.223937295760917 -79.91943377920526 -11.682267278219957 -0.3399154365159608 -0.3067567393588876 -0.5205394378095193 0.025642299372257503 -8.127653109497373 0.006937346323730577 0.041684040757633524 44.597418625862545 0.015541908071685484 -0.011176304507040167 44.54417611953338 12.467398869041793 -0.04750737445939574 -0.01684463987239213 0.008737734750448832 0.03637539097186845 -0.028016880880528165 -0.038004332204224514 0.00674239519784921 0.03741458349687329 11.09061950633295 -0.030150190033447224 -0.04237402108407533 0.012820914473279373 -0.011727818965764662 -0.03476258774191056 0.01569974579553549 0.03730141712547416 0.018860334950481825 4.810444840881575 0.021374983614184623 -0.011457432186374295 0.013242085326207657 0.01756147642058526 0.008623019127821648 -0.012026679690979227 -0.016650549705667185 -0.008954013575987888 -5.640461967592252 -0.003467102727994863 0.000956940243868687 -6.685951611125754 -0.04727332331145906 0.009905313425631047 -6.738800817771557 -0.035557646793652836 0.033078968796442294 0.016941586680430654 -0.04535717133589318 -0.009673066916508552 8.042252249431701 3.5370629057487397 -19.239017481767405 -0.036815131542993 10.434986030710949 -0.024613906814301315 -5.609316404189077 -15.62693392169198 3.1988002668114537 -0.01336690937645553 -0.024427718432951214 0.011512990066464446 0.025938331589959483 4.739529385448105 -0.02980350812389982 12.501661445235461 -8.207593513198784 6.8468940733384756 -0.016017138909784935 46.355660563277894 -0.028754186971462623 -4.289855677948608 -14.789314403825689 -3.8015159438540715 0.020526354214323573 0.011553555240124901 -0.042156975965887085 0.04991847129356514 -10.753603364650399 -0.005863530444623945 
0.03373375267606285 0.024022744720358126 -0.01744314564768692 0.028934176133765976 -0.02971675150247238 -0.03862686676495608 -1.9376600438867124 0.7618434571753235 -1.0186414621619246 -0.8031230614328712 3.547370380864775 0.37505968032512993 -1.1489816814080998 -2.0304918438271566 -1.0332058164084645 0.03010446389818809 -0.2749224912211176 -0.8353249545010333 0.22775665495887748 12.299629322577568 -1.415732703312301 0.22995936093732094 -0.237365899524134 -4.58751239226819 0.6389350037706746 -15.406410451899964 -0.32504765808783354 -5.52826586071896 2.0065194327482203 -15.76582428717437 69.72462483819709 -3.8853445405797937 4.323490129031417 31.33473918168242 9.315354418564066 89.85441361030128 20.54302133465359 -0.39679538384561247 -3.747794679554938 4.522405053970849 -0.14088434478416673 -1.6156011863758564 -0.040302883039437735 -0.031129650040464214 -56.28038532629962 0.04339808528567169 -0.039198844123456526 -56.217615828633605 -38.770973660438344 -0.019810968147094588 -0.0024855210043797224 -0.013342671975343227 0.002353712200727172 -9.888347478575559e-05 0.0006651760271718415 -0.008591705118893955 -0.03312347397771291 -36.67491321774811 -0.004781562330017725 0.013076218563097415 -0.0005480802711523344 -0.01700251447526444 -0.023037633292849656 -0.015260287555151426 0.02282725015023944 -0.011807578819032487 -19.781847700354266 0.04884134695908673 0.03311879561891973 -0.01609845086851515 -0.011124423041225153 -0.03080031860701006 -0.01757501098463477 -0.028023674945182892 0.03605218946139321 24.05540577565211 -0.02857934110737555 -0.045983624300260095 28.832690081403353 -0.010388909494071948 -0.0431203176740884 28.897504050331285 0.021377633361986743 -0.012476422150369721 6.4169439616083 1.6587404964135106 13.874593715613381 -66.91630808959134 13.985295528653314 -7.414299293030933 3.2242318769977825 -5.319356233922347 -82.60067298159102 -10.398944485129089 -0.34956528453201235 -0.3583286079384361 -0.46439796047437615 0.10058264220519401 -8.168625793814355 0.033410603997311376 -0.018960394446252117 44.59189957976373 0.017920016360607652 -0.04724343569603661 44.57425876791562 12.501143800595667 -0.012350681035364196 -0.022439033856858973 0.00895218752501327 -0.010580885123167823 0.01839482668010878 -0.022436580982048926 -0.004372303178422182 0.013978064491578013 11.118927354908612 -0.03752542720647485 -0.03881722881361941 -0.02702275729733213 -0.008481865520728766 0.03269537397380458 -0.036913338422348764 -0.03852797412491147 -0.026279323994054526 4.79963818224741 0.002321059815410304 0.036264141359636855 0.01540020372304282 0.049823268121990116 0.011775808500024949 0.02579567244588515 -0.03538884424161511 -0.00030480835779995866 -5.610578111509796 -0.010687042634172911 -0.022920731765835128 -6.731106036347231 0.013945342370084548 -0.004086510825551656 -6.710890236586549 0.03932160808178985 0.004104910217386251 0.025973129716099438 -0.04326466498675791 0.003581276544498792 8.07319107607387 3.48740502989915 -19.17506594346467 0.027025278026614488 10.40251879673775 0.0338077848725656 -5.628466967989809 -15.627651598690635 3.1877797698412556 0.04425674187077009 0.0203017536856238 -0.014782250057631403 0.022787802265045898 4.6903889427147565 -0.0008124005585186947 12.452509996084716 -8.22325133589488 6.867779970963675 -0.007721191612843187 46.408320193396314 0.01742385018573776 -4.31659990237828 -14.752958268952382 -3.834310185576564 -0.016183988089523225 -0.015014296299455667 -0.01869662840940645 -0.03703393071237984 -10.699847523516224 0.013422157119583179 
0.009556955496352324 -0.00675517559413525 -0.03904166568684561 -0.012633078874331653 -0.02724366822206567 -0.025805922407217942 -2.062156806762987 0.5774267658219805 -0.9957883207143395 -0.8019040297889836 3.5707539444962797 0.34673254329928765 -1.1192589376011355 -2.078575420336773 -1.0923467017808268 -0.026524578717193957 -0.21184635538838018 -0.8162306929242725 0.1392519644016047 12.533242223861526 -1.015151577765159 0.19271728709015934 -0.0723437772291188 -3.729276981688815 0.4864812956294714 -15.128271099740859 -0.315289415081527 -5.450652131219034 2.039305677296052 -15.626912511660775 69.34395300516334 -3.5826717364198766 4.656500932408961 30.919228643249145 8.776461893824372 91.13359491464585 20.676111849799348 -0.3936399653767755 -3.9763744950030087 4.538123669009226 -0.14713765556703104 -1.584534844926683 -0.006424675050608116 0.023433260734432373 -56.2481650561789 -0.020795664200380905 0.03114490229074623 -56.28324615283865 -38.80163110590982 -0.03900695005246506 -0.0009324890076578024 0.03172825141502635 0.03944368842840905 0.035531015242670466 -0.03542686112712012 -0.03810804565219839 0.010927562254109964 -36.70703835964085 -0.01549749187392713 0.01122979682079523 0.03590013620920358 -0.037746869485623016 -0.04108795562737931 -0.0428151842326501 0.02263000943616758 0.019455912272281568 -19.777229460890414 0.0248207483193382 0.03092529653586537 -0.040812637983822696 -0.0013622422305304843 0.016266854645403075 -0.0405033660076449 -0.017932211477332136 0.005842146459406869 24.04342532089645 0.025177695194759746 -0.0023317860083564273 28.880926723270605 0.0315606302113521 0.021975074535385487 28.896877471408327 -0.015105692089111214 0.004656801890706788 6.835602007327853 1.7427456733901305 13.891588259762678 -66.60491392042161 13.135078810431972 -8.868630395735046 3.9487565777255305 -6.053042662099907 -86.74473383961926 -8.946505535111084 -0.6387204710059916 -0.475169582778381 -0.49345600982900356 0.07210489918614839 -8.079975288227345 0.041638087188581016 0.023796141597267246 44.52142842716899 0.031768603884742425 -0.02520090041824625 44.52980382072731 12.464378342035394 0.04667849375353162 -0.02803676205017345 0.00013652925983243628 -0.04226351632646287 -0.023925729160689895 0.012961015158217131 0.016567012061995637 -0.04102539447288556 11.065445485641284 0.025546888326667908 -0.013904127858784537 -0.01389266346333052 -0.017998718976912714 0.03478152885874644 0.02692309843392404 0.04810230837571767 0.016049940316257772 4.801786876308361 0.02411328545705553 -0.03084910175146054 -0.018265974207183653 -0.045258993480856324 -0.03982700781340535 -0.022569177546858006 0.002361307550933099 -0.04204953952288907 -5.58647586661884 -0.016176444351735108 0.03244194062122304 -6.676226767319057 0.01940478094617189 0.0317241766441952 -6.687071581438427 -0.04614756556174068 0.042032455049916775 0.01471072818049566 -0.0059267813129547705 0.027606215075319167 8.068723404937321 3.5018809002793603 -19.17342162765322 -0.04628964822775442 10.389683919236425 -0.008513110876585444 -5.601914638417823 -15.671698477942366 3.1731574305196917 0.04017376685780255 -0.036833463554804685 -0.01343563421626045 0.01572773609912953 4.714953732539675 0.01530434570898809 12.427173912490254 -8.248344708828233 6.931439261196897 0.04343219912400586 46.4245326396258 -0.02198264423549891 -4.27535840605243 -14.794465271470054 -3.8171584040859776 0.0007457798821753291 0.01073121788840827 -0.03304929926045471 -0.04032734647847565 -10.758412214227079 -0.028041631579284534 
